<svg width="320" height="320" viewBox="0 0 320 320" fill="none" xmlns="http://www.w3.org/2000/svg">
  <rect width="320" height="320" rx="40" fill="#F6EFE5"/>
  <rect x="40" y="40" width="70" height="70" rx="10" fill="#0D1B1E"/>
  <rect x="55" y="55" width="40" height="40" rx="6" fill="#F6EFE5"/>
  <rect x="210" y="40" width="70" height="70" rx="10" fill="#0D1B1E"/>
  <rect x="225" y="55" width="40" height="40" rx="6" fill="#F6EFE5"/>
  <rect x="40" y="210" width="70" height="70" rx="10" fill="#0D1B1E"/>
  <rect x="55" y="225" width="40" height="40" rx="6" fill="#F6EFE5"/>
  <rect x="138" y="44" width="18" height="18" fill="#1B4965"/>
  <rect x="162" y="44" width="18" height="18" fill="#EE6C4D"/>
  <rect x="138" y="68" width="18" height="18" fill="#0D1B1E"/>
  <rect x="162" y="68" width="18" height="18" fill="#1B4965"/>
  <rect x="138" y="92" width="18" height="18" fill="#EE6C4D"/>
  <rect x="162" y="92" width="18" height="18" fill="#0D1B1E"/>
  <rect x="138" y="138" width="18" height="18" fill="#0D1B1E"/>
  <rect x="162" y="138" width="18" height="18" fill="#EE6C4D"/>
  <rect x="186" y="138" width="18" height="18" fill="#1B4965"/>
  <rect x="210" y="138" width="18" height="18" fill="#0D1B1E"/>
  <rect x="234" y="138" width="18" height="18" fill="#EE6C4D"/>
  <rect x="258" y="138" width="18" height="18" fill="#1B4965"/>
  <rect x="114" y="162" width="18" height="18" fill="#EE6C4D"/>
  <rect x="138" y="162" width="18" height="18" fill="#1B4965"/>
  <rect x="186" y="162" width="18" height="18" fill="#0D1B1E"/>
  <rect x="234" y="162" width="18" height="18" fill="#EE6C4D"/>
  <rect x="114" y="186" width="18" height="18" fill="#0D1B1E"/>
  <rect x="162" y="186" width="18" height="18" fill="#1B4965"/>
  <rect x="186" y="186" width="18" height="18" fill="#EE6C4D"/>
  <rect x="210" y="186" width="18" height="18" fill="#0D1B1E"/>
  <rect x="258" y="186" width="18" height="18" fill="#1B4965"/>
  <rect x="138" y="210" width="18" height="18" fill="#EE6C4D"/>
  <rect x="186" y="210" width="18" height="18" fill="#1B4965"/>
  <rect x="210" y="210" width="18" height="18" fill="#0D1B1E"/>
  <rect x="234" y="210" width="18" height="18" fill="#1B4965"/>
  <rect x="138" y="234" width="18" height="18" fill="#0D1B1E"/>
  <rect x="162" y="234" width="18" height="18" fill="#EE6C4D"/>
  <rect x="186" y="234" width="18" height="18" fill="#0D1B1E"/>
  <rect x="210" y="234" width="18" height="18" fill="#EE6C4D"/>
  <rect x="234" y="234" width="18" height="18" fill="#1B4965"/>
  <text x="160" y="304" text-anchor="middle" fill="#1B4965" font-family="Verdana" font-size="16">QR Placeholder</text>
</svg>
