<svg width="128" height="128" viewBox="0 0 128 128" fill="none" xmlns="http://www.w3.org/2000/svg">
  <rect width="128" height="128" rx="64" fill="#F8FBF3"/>
  <circle cx="64" cy="64" r="54" fill="#3F7F2F"/>
  <path d="M29 68C39 49 59 40 81 46C92 49 101 57 107 68C101 79 92 87 81 90C59 96 39 87 29 68Z" fill="#DFF0D7"/>
  <path d="M83 47C78 55 78 81 83 89C95 84 103 77 107 68C103 59 95 52 83 47Z" fill="#9FCB8D"/>
  <circle cx="48" cy="64" r="5" fill="#192617"/>
  <path d="M56 54C66 58 72 63 77 71" stroke="#3F7F2F" stroke-width="5" stroke-linecap="round"/>
  <path d="M56 75C66 72 72 67 77 59" stroke="#3F7F2F" stroke-width="5" stroke-linecap="round"/>
  <circle cx="92" cy="33" r="6" fill="#DFF0D7"/>
  <circle cx="101" cy="23" r="3" fill="#DFF0D7"/>
  <circle cx="34" cy="94" r="4" fill="#DFF0D7"/>
</svg>
